<svg id="lenovo_rewards" data-name="lenovo rewards" xmlns="http://www.w3.org/2000/svg" xmlns:xlink="http://www.w3.org/1999/xlink" width="14" height="16" viewBox="0 0 14 16">
  <defs>
    <clipPath id="clip-path">
      <path id="Clip_5" data-name="Clip 5" d="M5.055,9.271H0V.528A.538.538,0,0,1,.536,0h0a.54.54,0,0,1,.537.539V8.192H5.055a.54.54,0,0,1,0,1.079Z" transform="translate(0.135 0.227)" fill="none"/>
    </clipPath>
    <clipPath id="clip-path-2">
      <path id="Clip_8" data-name="Clip 8" d="M.54,0a.539.539,0,0,1,.537.538h0V8.191H5.055a.54.54,0,0,1,0,1.079H0V.526A.536.536,0,0,1,.536,0h0Z" transform="translate(0.135 0.228)" fill="none"/>
    </clipPath>
    <clipPath id="clip-path-3">
      <path id="Clip_11" data-name="Clip 11" d="M5.593,9.283H.538a.54.54,0,0,1,0-1.079H4.516V.54a.539.539,0,1,1,1.078,0V9.283Z" transform="translate(0.247 0.216)" fill="none"/>
    </clipPath>
    <clipPath id="clip-path-4">
      <path id="Clip_14" data-name="Clip 14" d="M5.055,0a.541.541,0,0,1,.539.54h0V9.284H.538a.54.54,0,0,1,0-1.079H4.517V.54A.541.541,0,0,1,5.055,0Z" transform="translate(0.247 0.215)" fill="none"/>
    </clipPath>
    <clipPath id="clip-path-6">
      <path id="Clip_20" data-name="Clip 20" d="M6.373,12.777a.54.54,0,0,1-.538-.54V6.907A13.006,13.006,0,0,1,1.04,4.337C-.137,3.13-.344,1.474.568.565A2.017,2.017,0,0,1,2.028,0,3.345,3.345,0,0,1,4.337,1.032,15.473,15.473,0,0,1,6.392,4.424,15.409,15.409,0,0,1,8.438,1.053,3.443,3.443,0,0,1,10.774,0,2,2,0,0,1,12.22.565a2.027,2.027,0,0,1,.564,1.476,3.28,3.28,0,0,1-1.066,2.276,12.8,12.8,0,0,1-4.807,2.59v5.33A.54.54,0,0,1,6.373,12.777ZM10.684,1.047A2.224,2.224,0,0,0,9.176,1.8,14.243,14.243,0,0,0,6.962,5.861a13.858,13.858,0,0,0,3.976-2.284,2.466,2.466,0,0,0,.709-1.269,1.08,1.08,0,0,0-.231-.985.994.994,0,0,0-.724-.276ZM1.939,1.07a.89.89,0,0,0-.61.256c-.483.5-.27,1.506.475,2.253A13.741,13.741,0,0,0,5.788,5.845,13.626,13.626,0,0,0,3.571,1.8a2.291,2.291,0,0,0-1.553-.724c-.026,0-.053,0-.078,0Z" transform="translate(0.134 0.091)" fill="none"/>
    </clipPath>
    <clipPath id="clip-path-7">
      <path id="Clip_23" data-name="Clip 23" d="M6.373,12.777a.54.54,0,0,1-.538-.54V6.907A13.01,13.01,0,0,1,1.04,4.338,3.442,3.442,0,0,1,0,2.049V1.964A1.99,1.99,0,0,1,.569.565,2.012,2.012,0,0,1,2.028,0,3.343,3.343,0,0,1,4.336,1.033,15.413,15.413,0,0,1,6.391,4.424a15.406,15.406,0,0,1,2.048-3.37A3.439,3.439,0,0,1,10.774,0,2,2,0,0,1,12.22.565a2.025,2.025,0,0,1,.563,1.476A3.282,3.282,0,0,1,11.72,4.318a12.834,12.834,0,0,1-4.807,2.59v5.329A.541.541,0,0,1,6.373,12.777ZM10.684,1.047A2.232,2.232,0,0,0,9.176,1.8,14.257,14.257,0,0,0,6.962,5.861a13.85,13.85,0,0,0,3.977-2.283,2.469,2.469,0,0,0,.708-1.269,1.078,1.078,0,0,0-.23-.985,1,1,0,0,0-.725-.277Zm-8.746.024a.889.889,0,0,0-.609.256c-.484.5-.271,1.507.475,2.253A13.78,13.78,0,0,0,5.788,5.845,13.38,13.38,0,0,0,3.572,1.8a2.294,2.294,0,0,0-1.553-.723C1.992,1.072,1.965,1.071,1.938,1.071Z" transform="translate(0.134 0.09)" fill="none"/>
    </clipPath>
  </defs>
  <g id="lenovo_rewards-2" data-name="lenovo rewards" transform="translate(0)">
    <g id="Group_6" data-name="Group 6" transform="translate(0 6.295)">
      <path id="Clip_5-2" data-name="Clip 5" d="M5.055,9.271H0V.528A.538.538,0,0,1,.536,0h0a.54.54,0,0,1,.537.539V8.192H5.055a.54.54,0,0,1,0,1.079Z" transform="translate(0.135 0.227)" fill="none"/>
      <g id="Group_6-2" data-name="Group 6" clip-path="url(#clip-path)">
        <path id="Fill_4" data-name="Fill 4" d="M0,9.271H5.593V0H0Z" transform="translate(0.135 0.227)" fill="#0a0b09"/>
      </g>
    </g>
    <g id="Group_9" data-name="Group 9" transform="translate(0 6.295)">
      <path id="Clip_8-2" data-name="Clip 8" d="M.54,0a.539.539,0,0,1,.537.538h0V8.191H5.055a.54.54,0,0,1,0,1.079H0V.526A.536.536,0,0,1,.536,0h0Z" transform="translate(0.135 0.228)" fill="none"/>
      <g id="Group_9-2" data-name="Group 9" clip-path="url(#clip-path-2)">
        <path id="Fill_7" data-name="Fill 7" d="M0,9.317H5.6V0H0Z" transform="translate(0.131 0.21)" fill="#0a0b09"/>
      </g>
    </g>
    <g id="Group_12" data-name="Group 12" transform="translate(7.082 6.295)">
      <path id="Clip_11-2" data-name="Clip 11" d="M5.593,9.283H.538a.54.54,0,0,1,0-1.079H4.516V.54a.539.539,0,1,1,1.078,0V9.283Z" transform="translate(0.247 0.216)" fill="none"/>
      <g id="Group_12-2" data-name="Group 12" clip-path="url(#clip-path-3)">
        <path id="Fill_10" data-name="Fill 10" d="M0,9.283H5.593V0H0Z" transform="translate(0.247 0.216)" fill="#0a0b09"/>
      </g>
    </g>
    <g id="Group_15" data-name="Group 15" transform="translate(7.082 6.295)">
      <path id="Clip_14-2" data-name="Clip 14" d="M5.055,0a.541.541,0,0,1,.539.54h0V9.284H.538a.54.54,0,0,1,0-1.079H4.517V.54A.541.541,0,0,1,5.055,0Z" transform="translate(0.247 0.215)" fill="none"/>
      <g id="Group_15-2" data-name="Group 15" clip-path="url(#clip-path-4)">
        <path id="Fill_13" data-name="Fill 13" d="M0,9.317H5.634V0H0Z" transform="translate(0.226 0.21)" fill="#0a0b09"/>
      </g>
    </g>
    <g id="Group_18" data-name="Group 18" transform="translate(7.082 6.295)">
      <path id="Clip_17-2" data-name="Clip 17" d="M5.055,0a.541.541,0,0,1,.539.54h0V9.284H.538a.54.54,0,0,1,0-1.079H4.517V.54A.541.541,0,0,1,5.055,0Z" transform="translate(0.247 0.215)" fill="none"/>
      <g id="Group_18-2" data-name="Group 18" clip-path="url(#clip-path-4)">
        <path id="Stroke_16" data-name="Stroke 16" d="M0,18.664H14.974V0H0Z" transform="translate(-4.443 -4.475)" fill="none" stroke="#0a0b09" stroke-width="0.5"/>
      </g>
    </g>
    <g id="Group_21" data-name="Group 21">
      <path id="Clip_20-2" data-name="Clip 20" d="M6.373,12.777a.54.54,0,0,1-.538-.54V6.907A13.006,13.006,0,0,1,1.04,4.337C-.137,3.13-.344,1.474.568.565A2.017,2.017,0,0,1,2.028,0,3.345,3.345,0,0,1,4.337,1.032,15.473,15.473,0,0,1,6.392,4.424,15.409,15.409,0,0,1,8.438,1.053,3.443,3.443,0,0,1,10.774,0,2,2,0,0,1,12.22.565a2.027,2.027,0,0,1,.564,1.476,3.28,3.28,0,0,1-1.066,2.276,12.8,12.8,0,0,1-4.807,2.59v5.33A.54.54,0,0,1,6.373,12.777ZM10.684,1.047A2.224,2.224,0,0,0,9.176,1.8,14.243,14.243,0,0,0,6.962,5.861a13.858,13.858,0,0,0,3.976-2.284,2.466,2.466,0,0,0,.709-1.269,1.08,1.08,0,0,0-.231-.985.994.994,0,0,0-.724-.276ZM1.939,1.07a.89.89,0,0,0-.61.256c-.483.5-.27,1.506.475,2.253A13.741,13.741,0,0,0,5.788,5.845,13.626,13.626,0,0,0,3.571,1.8a2.291,2.291,0,0,0-1.553-.724c-.026,0-.053,0-.078,0Z" transform="translate(0.134 0.091)" fill="none"/>
      <g id="Group_21-2" data-name="Group 21" clip-path="url(#clip-path-6)">
        <path id="Fill_19" data-name="Fill 19" d="M0,13.121H13.134V0H0Z" transform="translate(-0.209 -0.253)" fill="#0a0b09"/>
      </g>
    </g>
    <g id="Group_24" data-name="Group 24">
      <path id="Clip_23-2" data-name="Clip 23" d="M6.373,12.777a.54.54,0,0,1-.538-.54V6.907A13.01,13.01,0,0,1,1.04,4.338,3.442,3.442,0,0,1,0,2.049V1.964A1.99,1.99,0,0,1,.569.565,2.012,2.012,0,0,1,2.028,0,3.343,3.343,0,0,1,4.336,1.033,15.413,15.413,0,0,1,6.391,4.424a15.406,15.406,0,0,1,2.048-3.37A3.439,3.439,0,0,1,10.774,0,2,2,0,0,1,12.22.565a2.025,2.025,0,0,1,.563,1.476A3.282,3.282,0,0,1,11.72,4.318a12.834,12.834,0,0,1-4.807,2.59v5.329A.541.541,0,0,1,6.373,12.777ZM10.684,1.047A2.232,2.232,0,0,0,9.176,1.8,14.257,14.257,0,0,0,6.962,5.861a13.85,13.85,0,0,0,3.977-2.283,2.469,2.469,0,0,0,.708-1.269,1.078,1.078,0,0,0-.23-.985,1,1,0,0,0-.725-.277Zm-8.746.024a.889.889,0,0,0-.609.256c-.484.5-.271,1.507.475,2.253A13.78,13.78,0,0,0,5.788,5.845,13.38,13.38,0,0,0,3.572,1.8a2.294,2.294,0,0,0-1.553-.723C1.992,1.072,1.965,1.071,1.938,1.071Z" transform="translate(0.134 0.09)" fill="none"/>
      <g id="Group_24-2" data-name="Group 24" clip-path="url(#clip-path-7)">
        <path id="Fill_22" data-name="Fill 22" d="M0,12.81H12.81V0H0Z" transform="translate(0.131 0.084)" fill="#0a0b09"/>
      </g>
    </g>
    <g id="Group_27" data-name="Group 27">
      <path id="Clip_26-2" data-name="Clip 26" d="M6.373,12.777a.54.54,0,0,1-.538-.54V6.907A13.01,13.01,0,0,1,1.04,4.338,3.442,3.442,0,0,1,0,2.049V1.964A1.99,1.99,0,0,1,.569.565,2.012,2.012,0,0,1,2.028,0,3.343,3.343,0,0,1,4.336,1.033,15.413,15.413,0,0,1,6.391,4.424a15.406,15.406,0,0,1,2.048-3.37A3.439,3.439,0,0,1,10.774,0,2,2,0,0,1,12.22.565a2.025,2.025,0,0,1,.563,1.476A3.282,3.282,0,0,1,11.72,4.318a12.834,12.834,0,0,1-4.807,2.59v5.329A.541.541,0,0,1,6.373,12.777ZM10.684,1.047A2.232,2.232,0,0,0,9.176,1.8,14.257,14.257,0,0,0,6.962,5.861a13.85,13.85,0,0,0,3.977-2.283,2.469,2.469,0,0,0,.708-1.269,1.078,1.078,0,0,0-.23-.985,1,1,0,0,0-.725-.277Zm-8.746.024a.889.889,0,0,0-.609.256c-.484.5-.271,1.507.475,2.253A13.78,13.78,0,0,0,5.788,5.845,13.38,13.38,0,0,0,3.572,1.8a2.294,2.294,0,0,0-1.553-.723C1.992,1.072,1.965,1.071,1.938,1.071Z" transform="translate(0.134 0.09)" fill="none"/>
      <g id="Group_27-2" data-name="Group 27" clip-path="url(#clip-path-7)">
        <path id="Stroke_25" data-name="Stroke 25" d="M0,22.161H22.16V0H0Z" transform="translate(-4.551 -4.602)" fill="none" stroke="#0a0b09" stroke-width="0.5"/>
      </g>
    </g>
  </g>
</svg>
